<?xml version="1.0" encoding="UTF-8"?>
<svg id="Layer_1" xmlns="http://www.w3.org/2000/svg" version="1.1" viewBox="0 0 285.44 126.34">
  <!-- Generator: Adobe Illustrator 29.7.1, SVG Export Plug-In . SVG Version: 2.1.1 Build 8)  -->
  <defs>
    <style>
      .st0 {
        fill: #fff;
      }

      .st1 {
        fill: #606161;
      }

      .st2 {
        fill: #f04e24;
      }
    </style>
  </defs>
  <rect class="st1" x="-7.75" y="-14.17" width="307.36" height="140.51"/>
  <g>
    <g>
      <g>
        <path class="st1" d="M443.83,68.95h6.97l26.02-31.85h18.42l-31.64,38.1,34.87,39.97h-18.95l-28.73-33.42h-6.97v33.42h-14.99V37.1h14.99v31.85Z"/>
        <path class="st1" d="M516.9,115.17h-14.99V37.1h14.99v78.07Z"/>
        <path class="st1" d="M560.51,115.17h-14.99V49.9h-22.9v-12.8h60.79v12.8h-22.9v65.27Z"/>
        <path class="st1" d="M652.53,64.99v21.03c0,24.98-9.68,29.77-33.31,29.77s-33-4.16-33-29.77v-21.03c0-24.25,8.22-28.52,33-28.52,22.49,0,33.31,3.44,33.31,28.52ZM601.21,64.99v21.03c0,15.51,3.02,16.97,18.01,16.97,13.64,0,18.32-1.87,18.32-16.97v-21.03c.31-14.68-5-15.72-18.32-15.72-16.13,0-17.7,3.33-18.01,15.72Z"/>
      </g>
      <path class="st1" d="M706.33,40.44c-.12-.73.42-1.85-.1-2.64-.2-.31-.7-.46-.95-.71-.65-.65-2.25-2-3.07-2.34-.62-.26-.84.09-1.29.06-.76-.06-1.26-1.53-1.68-2.07-1.27-1.64-2-2.66-3.11-4.37-1.05-1.61-3.73-3.16-5.5-3.86-1.1-.44-4.13-.95-4.68-1.97-.49-.92.66-.72,1.06-1.03.85-.65.16-2.25.5-3.13h-1.04c1.22-3.96-3.41-9.24-7.34-6.62-1.41.94-2.69,2.73-2.84,4.44-.06.64.29,2.3.21,2.39-.03.03-.47-.03-.73.21-.67.63.08,3.29.87,3.5.24.07.6-.25.79.03.19.28.44,1.76.27,2.05-.04.06-1.08.8-1.15.83-.55.19-1.46.15-2.13.36-2.01.64-4.53,2.8-6.02,4.57,0,0,0,.01,0,.02-.22.4-.47.79-.72,1.17.21-5.39.34-8.86.36-9.29,0,0,3.28-8.26.44-19.02,0,0-3.45,6.87-1.35,18.88,0,0-.3,5.49-.72,14-.05.26-.09.47-.15.64-.13.42-.68.87-.75,1.35-.07.46.19.73.18.97,0,.13-.39.1-.43.26-.11.45.23,1.06.2,1.6-.1,2.26-1.19,4.8-1.59,6.95-.27,1.42-.12,3.21-.53,4.46-.48,1.46-2,3.07-2.04,4.84-.03,1.39,1.44,3.23,1.47,4.39.01.44-.36.71-.43,1.21-.12.85.22,2.19.11,2.84-.08.42-.57.81-.67,1.17-.45,1.67,1.64,3.07,2.75,3.8.12.02.24.05.36.08-.72,19.36-1.22,39.68-.73,50.88,0,0,.99-25.4,1.97-50.51.12.04.24.08.37.11,0-.02,0-.04,0-.05.06-.46.39-.73.41-1.02.02-.35-.3-.8-.2-1.22.05-.21.44-.21.54-.35.35-.52-.36-.92-.31-1.46.14-.15,1.77,1.27,1.98,1.45.55.5,2.39,2.27,2.54,2.86.28,1.11-.2,2.2-.17,3.28.03,1.16.54,2.7.63,3.95.23,3.07.04,3.51.94,6.55.78,2.66.79,3.36,2.9,5.41,1.05,1.02,1.46,1.46,2.83.71,3.26,2.08,6.94,3.22,10.55,4.5.23.95-.19,1.87-.2,2.78-.04,4.99,1.66,14.29-.98,18.58.09.03.11.12.08.2-.21.5-.56.92-.97,1.28.03.06.05.11.06.18h.02s.01,0,.02,0c-.11.14-.22.28-.34.42-.25.29-.56.6-.57,1.01,0,.43.31.73.72.8.44.07.89.11,1.34.16.85.1,1.71.18,2.57.2.05,0,.09,0,.14,0,.17.07.35.11.54.14.38.05,1.1.03,1.56-.21.25-.02.5-.06.75-.09.33-.05.48-.51.31-.76-.65-1.01-1.3-2.03-1.94-3.04-.13-1.12-.48-2.17-.15-3.45,1.49-4.13,1.68-8.59,2.89-12.81.45-.44.6,1.16.62,1.35.2,2.37-.25,4.83.73,7.17,1.22,2.92,3.67-.99,4.11-2.54.78-2.74-.16-4.73.14-7.14.08-.69.45-1.03.44-1.86-.01-.73-.31-2.98-.48-3.7-.45-1.94-3.07-.69-3.4-1.18-.23-.34-.03-1.39-.14-1.94-.09-.43-.48-.78-.56-1.31-.29-1.79.62-3.79.81-5.6.51-4.65.42-9.87,0-14.55-.16-1.79-.59-3.79-1.04-5.51,1.9-.2,1.65,2.05,3.11,2.52l-.2.6c.86.16,1.06-.81,1.25-1.45l.82.2c.29-1.93.77-3.97.63-5.93-.05-.78-.9-3.27-.83-3.5.13-.37.73-.29.93-.55.07-.08.23-1.54.47-2.02,1.24-2.57,3.92-4.97,4.72-8.17.26-1.06-.19-1.86.7-2.78-.39-.66-1.41-1.9-1.52-2.61ZM691.27,120.12c-.07-.04-.14-.08-.2-.13.05.02.1.03.15.04.04.03.09.06.14.09-.03,0-.06,0-.09,0Z"/>
    </g>
    <g>
      <path class="st1" d="M600.51,15.25c1.13.73,2.02,1.68,2.67,2.87.65,1.19.98,2.48.98,3.87,0,2.22-.78,4.11-2.34,5.68s-3.45,2.36-5.67,2.36c-1.97,0-3.71-.63-5.2-1.9-1.49-1.27-2.4-2.86-2.72-4.78h3.26c.3,1.01.88,1.84,1.74,2.49.86.66,1.83.98,2.92.98,1.33,0,2.46-.47,3.4-1.42.94-.95,1.41-2.09,1.41-3.42s-.47-2.46-1.41-3.4c-.94-.94-2.07-1.41-3.4-1.41h-2.15v-3.2h2.15c.73,0,1.35-.26,1.87-.79s.79-1.16.79-1.9-.26-1.38-.79-1.9c-.52-.52-1.15-.79-1.87-.79-.64,0-1.21.21-1.71.62-.49.41-.8.92-.92,1.53h-3.26c.14-1.51.78-2.78,1.9-3.81,1.13-1.03,2.46-1.54,3.99-1.54,1.61,0,2.99.57,4.14,1.72,1.15,1.15,1.72,2.54,1.72,4.17,0,1.51-.5,2.83-1.51,3.96Z"/>
      <path class="st1" d="M622.45,10.74h-3.66c-1.07-1.43-2.5-2.15-4.29-2.15-1.47,0-2.73.52-3.78,1.57s-1.57,2.32-1.57,3.81v7.49c0,1.47.52,2.73,1.57,3.78s2.31,1.57,3.78,1.57,2.73-.52,3.78-1.57,1.57-2.31,1.57-3.78-.52-2.76-1.57-3.81-2.31-1.57-3.78-1.57-2.79.55-3.84,1.66v-3.96c1.21-.6,2.49-.91,3.84-.91,2.38,0,4.4.84,6.07,2.51,1.67,1.67,2.51,3.7,2.51,6.07s-.84,4.37-2.51,6.04c-1.67,1.67-3.7,2.51-6.07,2.51s-4.37-.84-6.04-2.51-2.51-3.69-2.51-6.04v-7.49c0-2.38.84-4.4,2.51-6.07s3.69-2.51,6.04-2.51c1.77,0,3.38.49,4.82,1.48,1.44.99,2.48,2.28,3.13,3.87Z"/>
      <path class="st1" d="M628.42,9.01c2.41-2.41,5.31-3.61,8.72-3.61s6.31,1.2,8.7,3.61c2.4,2.41,3.6,5.31,3.6,8.72s-1.2,6.31-3.6,8.7-5.3,3.6-8.7,3.6-6.31-1.2-8.72-3.6-3.61-5.3-3.61-8.7,1.2-6.31,3.61-8.72ZM637.14,26.82c2.5,0,4.64-.89,6.42-2.66s2.67-3.92,2.67-6.44-.89-4.67-2.66-6.45-3.92-2.67-6.44-2.67-4.66.89-6.44,2.67-2.66,3.93-2.66,6.45.89,4.66,2.66,6.44,3.92,2.66,6.44,2.66Z"/>
    </g>
  </g>
  <g>
    <g>
      <g>
        <path class="st0" d="M17.41,68.95h6.97l26.02-31.85h18.42l-31.64,38.1,34.87,39.97h-18.95l-28.73-33.42h-6.97v33.42H2.42V37.1h14.99v31.85Z"/>
        <path class="st0" d="M90.49,115.17h-14.99V37.1h14.99v78.07Z"/>
        <path class="st0" d="M134.1,115.17h-14.99V49.9h-22.9v-12.8h60.79v12.8h-22.9v65.27Z"/>
        <path class="st0" d="M226.12,64.99v21.03c0,24.98-9.68,29.77-33.31,29.77s-33-4.16-33-29.77v-21.03c0-24.25,8.22-28.52,33-28.52,22.49,0,33.31,3.44,33.31,28.52ZM174.8,64.99v21.03c0,15.51,3.02,16.97,18.01,16.97,13.64,0,18.32-1.87,18.32-16.97v-21.03c.31-14.68-5-15.72-18.32-15.72-16.13,0-17.7,3.33-18.01,15.72Z"/>
      </g>
      <path class="st0" d="M279.92,40.44c-.12-.73.42-1.85-.1-2.64-.2-.31-.7-.46-.95-.71-.65-.65-2.25-2-3.07-2.34-.62-.26-.84.09-1.29.06-.76-.06-1.26-1.53-1.68-2.07-1.27-1.64-2-2.66-3.11-4.37-1.05-1.61-3.73-3.16-5.5-3.86-1.1-.44-4.13-.95-4.68-1.97-.49-.92.66-.72,1.06-1.03.85-.65.16-2.25.5-3.13h-1.04c1.22-3.96-3.41-9.24-7.34-6.62-1.41.94-2.69,2.73-2.84,4.44-.06.64.29,2.3.21,2.39-.03.03-.47-.03-.73.21-.67.63.08,3.29.87,3.5.24.07.6-.25.79.03.19.28.44,1.76.27,2.05-.04.06-1.08.8-1.15.83-.55.19-1.46.15-2.13.36-2.01.64-4.53,2.8-6.02,4.57,0,0,0,.01,0,.02-.22.4-.47.79-.72,1.17.21-5.39.34-8.86.36-9.29,0,0,3.28-8.26.44-19.02,0,0-3.45,6.87-1.35,18.88,0,0-.3,5.49-.72,14-.05.26-.09.47-.15.64-.13.42-.68.87-.75,1.35-.07.46.19.73.18.97,0,.13-.39.1-.43.26-.11.45.23,1.06.2,1.6-.1,2.26-1.19,4.8-1.59,6.95-.27,1.42-.12,3.21-.53,4.46-.48,1.46-2,3.07-2.04,4.84-.03,1.39,1.44,3.23,1.47,4.39.01.44-.36.71-.43,1.21-.12.85.22,2.19.11,2.84-.08.42-.57.81-.67,1.17-.45,1.67,1.64,3.07,2.75,3.8.12.02.24.05.36.08-.72,19.36-1.22,39.68-.73,50.88,0,0,.99-25.4,1.97-50.51.12.04.24.08.37.11,0-.02,0-.04,0-.05.06-.46.39-.73.41-1.02.02-.35-.3-.8-.2-1.22.05-.21.44-.21.54-.35.35-.52-.36-.92-.31-1.46.14-.15,1.77,1.27,1.98,1.45.55.5,2.39,2.27,2.54,2.86.28,1.11-.2,2.2-.17,3.28.03,1.16.54,2.7.63,3.95.23,3.07.04,3.51.94,6.55.78,2.66.79,3.36,2.9,5.41,1.05,1.02,1.46,1.46,2.83.71,3.26,2.08,6.94,3.22,10.55,4.5.23.95-.19,1.87-.2,2.78-.04,4.99,1.66,14.29-.98,18.58.09.03.11.12.08.2-.21.5-.56.92-.97,1.28.03.06.05.11.06.18h.02s.01,0,.02,0c-.11.14-.22.28-.34.42-.25.29-.56.6-.57,1.01,0,.43.31.73.72.8.44.07.89.11,1.34.16.85.1,1.71.18,2.57.2.05,0,.09,0,.14,0,.17.07.35.11.54.14.38.05,1.1.03,1.56-.21.25-.02.5-.06.75-.09.33-.05.48-.51.31-.76-.65-1.01-1.3-2.03-1.94-3.04-.13-1.12-.48-2.17-.15-3.45,1.49-4.13,1.68-8.59,2.89-12.81.45-.44.6,1.16.62,1.35.2,2.37-.25,4.83.73,7.17,1.22,2.92,3.67-.99,4.11-2.54.78-2.74-.16-4.73.14-7.14.08-.69.45-1.03.44-1.86-.01-.73-.31-2.98-.48-3.7-.45-1.94-3.07-.69-3.4-1.18-.23-.34-.03-1.39-.14-1.94-.09-.43-.48-.78-.56-1.31-.29-1.79.62-3.79.81-5.6.51-4.65.42-9.87,0-14.55-.16-1.79-.59-3.79-1.04-5.51,1.9-.2,1.65,2.05,3.11,2.52l-.2.6c.86.16,1.06-.81,1.25-1.45l.82.2c.29-1.93.77-3.97.63-5.93-.05-.78-.9-3.27-.83-3.5.13-.37.73-.29.93-.55.07-.08.23-1.54.47-2.02,1.24-2.57,3.92-4.97,4.72-8.17.26-1.06-.19-1.86.7-2.78-.39-.66-1.41-1.9-1.52-2.61ZM264.86,120.12c-.07-.04-.14-.08-.2-.13.05.02.1.03.15.04.04.03.09.06.14.09-.03,0-.06,0-.09,0Z"/>
    </g>
    <g>
      <path class="st0" d="M174.1,15.25c1.13.73,2.02,1.68,2.67,2.87.65,1.19.98,2.48.98,3.87,0,2.22-.78,4.11-2.34,5.68s-3.45,2.36-5.67,2.36c-1.97,0-3.71-.63-5.2-1.9-1.49-1.27-2.4-2.86-2.72-4.78h3.26c.3,1.01.88,1.84,1.74,2.49.86.66,1.83.98,2.92.98,1.33,0,2.46-.47,3.4-1.42.94-.95,1.41-2.09,1.41-3.42s-.47-2.46-1.41-3.4c-.94-.94-2.07-1.41-3.4-1.41h-2.15v-3.2h2.15c.73,0,1.35-.26,1.87-.79s.79-1.16.79-1.9-.26-1.38-.79-1.9c-.52-.52-1.15-.79-1.87-.79-.64,0-1.21.21-1.71.62-.49.41-.8.92-.92,1.53h-3.26c.14-1.51.78-2.78,1.9-3.81,1.13-1.03,2.46-1.54,3.99-1.54,1.61,0,2.99.57,4.14,1.72,1.15,1.15,1.72,2.54,1.72,4.17,0,1.51-.5,2.83-1.51,3.96Z"/>
      <path class="st0" d="M196.04,10.74h-3.66c-1.07-1.43-2.5-2.15-4.29-2.15-1.47,0-2.73.52-3.78,1.57s-1.57,2.32-1.57,3.81v7.49c0,1.47.52,2.73,1.57,3.78s2.31,1.57,3.78,1.57,2.73-.52,3.78-1.57,1.57-2.31,1.57-3.78-.52-2.76-1.57-3.81-2.31-1.57-3.78-1.57-2.79.55-3.84,1.66v-3.96c1.21-.6,2.49-.91,3.84-.91,2.38,0,4.4.84,6.07,2.51,1.67,1.67,2.51,3.7,2.51,6.07s-.84,4.37-2.51,6.04c-1.67,1.67-3.7,2.51-6.07,2.51s-4.37-.84-6.04-2.51-2.51-3.69-2.51-6.04v-7.49c0-2.38.84-4.4,2.51-6.07s3.69-2.51,6.04-2.51c1.77,0,3.38.49,4.82,1.48,1.44.99,2.48,2.28,3.13,3.87Z"/>
      <path class="st0" d="M202.01,9.01c2.41-2.41,5.31-3.61,8.72-3.61s6.31,1.2,8.7,3.61c2.4,2.41,3.6,5.31,3.6,8.72s-1.2,6.31-3.6,8.7-5.3,3.6-8.7,3.6-6.31-1.2-8.72-3.6-3.61-5.3-3.61-8.7,1.2-6.31,3.61-8.72ZM210.72,26.82c2.5,0,4.64-.89,6.42-2.66s2.67-3.92,2.67-6.44-.89-4.67-2.66-6.45-3.92-2.67-6.44-2.67-4.66.89-6.44,2.67-2.66,3.93-2.66,6.45.89,4.66,2.66,6.44,3.92,2.66,6.44,2.66Z"/>
    </g>
  </g>
  <g>
    <g>
      <g>
        <path class="st2" d="M444.83-203.51h6.97l26.02-31.85h18.42l-31.64,38.1,34.87,39.97h-18.95l-28.73-33.42h-6.97v33.42h-14.99v-78.07h14.99v31.85Z"/>
        <path class="st2" d="M517.9-157.29h-14.99v-78.07h14.99v78.07Z"/>
        <path class="st2" d="M561.51-157.29h-14.99v-65.27h-22.9v-12.8h60.79v12.8h-22.9v65.27Z"/>
        <path class="st2" d="M653.53-207.46v21.03c0,24.98-9.68,29.77-33.31,29.77s-33-4.16-33-29.77v-21.03c0-24.25,8.22-28.52,33-28.52,22.49,0,33.31,3.44,33.31,28.52ZM602.21-207.46v21.03c0,15.51,3.02,16.97,18.01,16.97,13.64,0,18.32-1.87,18.32-16.97v-21.03c.31-14.68-5-15.72-18.32-15.72-16.13,0-17.7,3.33-18.01,15.72Z"/>
      </g>
      <path class="st2" d="M707.33-232.01c-.12-.73.42-1.85-.1-2.64-.2-.31-.7-.46-.95-.71-.65-.65-2.25-2-3.07-2.34-.62-.26-.84.09-1.29.06-.76-.06-1.26-1.53-1.68-2.07-1.27-1.64-2-2.66-3.11-4.37-1.05-1.61-3.73-3.16-5.5-3.86-1.1-.44-4.13-.95-4.68-1.97-.49-.92.66-.72,1.06-1.03.85-.65.16-2.25.5-3.13h-1.04c1.22-3.96-3.41-9.24-7.34-6.62-1.41.94-2.69,2.73-2.84,4.44-.06.64.29,2.3.21,2.39-.03.03-.47-.03-.73.21-.67.63.08,3.29.87,3.5.24.07.6-.25.79.03.19.28.44,1.76.27,2.05-.04.06-1.08.8-1.15.83-.55.19-1.46.15-2.13.36-2.01.64-4.53,2.8-6.02,4.57,0,0,0,.01,0,.02-.22.4-.47.79-.72,1.17.21-5.39.34-8.86.36-9.29,0,0,3.28-8.26.44-19.02,0,0-3.45,6.87-1.35,18.88,0,0-.3,5.49-.72,14-.05.26-.09.47-.15.64-.13.42-.68.87-.75,1.35-.07.46.19.73.18.97,0,.13-.39.1-.43.26-.11.45.23,1.06.2,1.6-.1,2.26-1.19,4.8-1.59,6.95-.27,1.42-.12,3.21-.53,4.46-.48,1.46-2,3.07-2.04,4.84-.03,1.39,1.44,3.23,1.47,4.39.01.44-.36.71-.43,1.21-.12.85.22,2.19.11,2.84-.08.42-.57.81-.67,1.17-.45,1.67,1.64,3.07,2.75,3.8.12.02.24.05.36.08-.72,19.36-1.22,39.68-.73,50.88,0,0,.99-25.4,1.97-50.51.12.04.24.08.37.11,0-.02,0-.04,0-.05.06-.46.39-.73.41-1.02.02-.35-.3-.8-.2-1.22.05-.21.44-.21.54-.35.35-.52-.36-.92-.31-1.46.14-.15,1.77,1.27,1.98,1.45.55.5,2.39,2.27,2.54,2.86.28,1.11-.2,2.2-.17,3.28.03,1.16.54,2.7.63,3.95.23,3.07.04,3.51.94,6.55.78,2.66.79,3.36,2.9,5.41,1.05,1.02,1.46,1.46,2.83.71,3.26,2.08,6.94,3.22,10.55,4.5.23.95-.19,1.87-.2,2.78-.04,4.99,1.66,14.29-.98,18.58.09.03.11.12.08.2-.21.5-.56.92-.97,1.28.03.06.05.11.06.18h.02s.01,0,.02,0c-.11.14-.22.28-.34.42-.25.29-.56.6-.57,1.01,0,.43.31.73.72.8.44.07.89.11,1.34.16.85.1,1.71.18,2.57.2.05,0,.09,0,.14,0,.17.07.35.11.54.14.38.05,1.1.03,1.56-.21.25-.02.5-.06.75-.09.33-.05.48-.51.31-.76-.65-1.01-1.3-2.03-1.94-3.04-.13-1.12-.48-2.17-.15-3.45,1.49-4.13,1.68-8.59,2.89-12.81.45-.44.6,1.16.62,1.35.2,2.37-.25,4.83.73,7.17,1.22,2.92,3.67-.99,4.11-2.54.78-2.74-.16-4.73.14-7.14.08-.69.45-1.03.44-1.86-.01-.73-.31-2.98-.48-3.7-.45-1.94-3.07-.69-3.4-1.18-.23-.34-.03-1.39-.14-1.94-.09-.43-.48-.78-.56-1.31-.29-1.79.62-3.79.81-5.6.51-4.65.42-9.87,0-14.55-.16-1.79-.59-3.79-1.04-5.51,1.9-.2,1.65,2.05,3.11,2.52l-.2.6c.86.16,1.06-.81,1.25-1.45l.82.2c.29-1.93.77-3.97.63-5.93-.05-.78-.9-3.27-.83-3.5.13-.37.73-.29.93-.55.07-.08.23-1.54.47-2.02,1.24-2.57,3.92-4.97,4.72-8.17.26-1.06-.19-1.86.7-2.78-.39-.66-1.41-1.9-1.52-2.61ZM692.27-152.33c-.07-.04-.14-.08-.2-.13.05.02.1.03.15.04.04.03.09.06.14.09-.03,0-.06,0-.09,0Z"/>
    </g>
    <g>
      <path class="st2" d="M601.51-257.21c1.13.73,2.02,1.68,2.67,2.87.65,1.19.98,2.48.98,3.87,0,2.22-.78,4.11-2.34,5.68s-3.45,2.36-5.67,2.36c-1.97,0-3.71-.63-5.2-1.9-1.49-1.27-2.4-2.86-2.72-4.78h3.26c.3,1.01.88,1.84,1.74,2.49.86.66,1.83.98,2.92.98,1.33,0,2.46-.47,3.4-1.42.94-.95,1.41-2.09,1.41-3.42s-.47-2.46-1.41-3.4c-.94-.94-2.07-1.41-3.4-1.41h-2.15v-3.2h2.15c.73,0,1.35-.26,1.87-.79s.79-1.16.79-1.9-.26-1.38-.79-1.9c-.52-.52-1.15-.79-1.87-.79-.64,0-1.21.21-1.71.62-.49.41-.8.92-.92,1.53h-3.26c.14-1.51.78-2.78,1.9-3.81,1.13-1.03,2.46-1.54,3.99-1.54,1.61,0,2.99.57,4.14,1.72,1.15,1.15,1.72,2.54,1.72,4.17,0,1.51-.5,2.83-1.51,3.96Z"/>
      <path class="st2" d="M623.45-261.71h-3.66c-1.07-1.43-2.5-2.15-4.29-2.15-1.47,0-2.73.52-3.78,1.57s-1.57,2.32-1.57,3.81v7.49c0,1.47.52,2.73,1.57,3.78s2.31,1.57,3.78,1.57,2.73-.52,3.78-1.57,1.57-2.31,1.57-3.78-.52-2.76-1.57-3.81-2.31-1.57-3.78-1.57-2.79.55-3.84,1.66v-3.96c1.21-.6,2.49-.91,3.84-.91,2.38,0,4.4.84,6.07,2.51,1.67,1.67,2.51,3.7,2.51,6.07s-.84,4.37-2.51,6.04c-1.67,1.67-3.7,2.51-6.07,2.51s-4.37-.84-6.04-2.51-2.51-3.69-2.51-6.04v-7.49c0-2.38.84-4.4,2.51-6.07s3.69-2.51,6.04-2.51c1.77,0,3.38.49,4.82,1.48,1.44.99,2.48,2.28,3.13,3.87Z"/>
      <path class="st2" d="M629.42-263.45c2.41-2.41,5.31-3.61,8.72-3.61s6.31,1.2,8.7,3.61c2.4,2.41,3.6,5.31,3.6,8.72s-1.2,6.31-3.6,8.7-5.3,3.6-8.7,3.6-6.31-1.2-8.72-3.6-3.61-5.3-3.61-8.7,1.2-6.31,3.61-8.72ZM638.14-245.64c2.5,0,4.64-.89,6.42-2.66s2.67-3.92,2.67-6.44-.89-4.67-2.66-6.45-3.92-2.67-6.44-2.67-4.66.89-6.44,2.67-2.66,3.93-2.66,6.45.89,4.66,2.66,6.44,3.92,2.66,6.44,2.66Z"/>
    </g>
  </g>
  <g>
    <g>
      <g>
        <path class="st1" d="M21.41-204.52h6.97l26.02-31.85h18.42l-31.64,38.1,34.87,39.97h-18.95l-28.73-33.42h-6.97v33.42H6.42v-78.07h14.99v31.85Z"/>
        <path class="st1" d="M94.49-158.3h-14.99v-78.07h14.99v78.07Z"/>
        <path class="st1" d="M138.1-158.3h-14.99v-65.27h-22.9v-12.8h60.79v12.8h-22.9v65.27Z"/>
        <path class="st1" d="M230.12-208.47v21.03c0,24.98-9.68,29.77-33.31,29.77s-33-4.16-33-29.77v-21.03c0-24.25,8.22-28.52,33-28.52,22.49,0,33.31,3.44,33.31,28.52ZM178.8-208.47v21.03c0,15.51,3.02,16.97,18.01,16.97,13.64,0,18.32-1.87,18.32-16.97v-21.03c.31-14.68-5-15.72-18.32-15.72-16.13,0-17.7,3.33-18.01,15.72Z"/>
      </g>
      <path class="st2" d="M283.92-233.02c-.12-.73.42-1.85-.1-2.64-.2-.31-.7-.46-.95-.71-.65-.65-2.25-2-3.07-2.34-.62-.26-.84.09-1.29.06-.76-.06-1.26-1.53-1.68-2.07-1.27-1.64-2-2.66-3.11-4.37-1.05-1.61-3.73-3.16-5.5-3.86-1.1-.44-4.13-.95-4.68-1.97-.49-.92.66-.72,1.06-1.03.85-.65.16-2.25.5-3.13h-1.04c1.22-3.96-3.41-9.24-7.34-6.62-1.41.94-2.69,2.73-2.84,4.44-.06.64.29,2.3.21,2.39-.03.03-.47-.03-.73.21-.67.63.08,3.29.87,3.5.24.07.6-.25.79.03.19.28.44,1.76.27,2.05-.04.06-1.08.8-1.15.83-.55.19-1.46.15-2.13.36-2.01.64-4.53,2.8-6.02,4.57,0,0,0,.01,0,.02-.22.4-.47.79-.72,1.17.21-5.39.34-8.86.36-9.29,0,0,3.28-8.26.44-19.02,0,0-3.45,6.87-1.35,18.88,0,0-.3,5.49-.72,14-.05.26-.09.47-.15.64-.13.42-.68.87-.75,1.35-.07.46.19.73.18.97,0,.13-.39.1-.43.26-.11.45.23,1.06.2,1.6-.1,2.26-1.19,4.8-1.59,6.95-.27,1.42-.12,3.21-.53,4.46-.48,1.46-2,3.07-2.04,4.84-.03,1.39,1.44,3.23,1.47,4.39.01.44-.36.71-.43,1.21-.12.85.22,2.19.11,2.84-.08.42-.57.81-.67,1.17-.45,1.67,1.64,3.07,2.75,3.8.12.02.24.05.36.08-.72,19.36-1.22,39.68-.73,50.88,0,0,.99-25.4,1.97-50.51.12.04.24.08.37.11,0-.02,0-.04,0-.05.06-.46.39-.73.41-1.02.02-.35-.3-.8-.2-1.22.05-.21.44-.21.54-.35.35-.52-.36-.92-.31-1.46.14-.15,1.77,1.27,1.98,1.45.55.5,2.39,2.27,2.54,2.86.28,1.11-.2,2.2-.17,3.28.03,1.16.54,2.7.63,3.95.23,3.07.04,3.51.94,6.55.78,2.66.79,3.36,2.9,5.41,1.05,1.02,1.46,1.46,2.83.71,3.26,2.08,6.94,3.22,10.55,4.5.23.95-.19,1.87-.2,2.78-.04,4.99,1.66,14.29-.98,18.58.09.03.11.12.08.2-.21.5-.56.92-.97,1.28.03.06.05.11.06.18h.02s.01,0,.02,0c-.11.14-.22.28-.34.42-.25.29-.56.6-.57,1.01,0,.43.31.73.72.8.44.07.89.11,1.34.16.85.1,1.71.18,2.57.2.05,0,.09,0,.14,0,.17.07.35.11.54.14.38.05,1.1.03,1.56-.21.25-.02.5-.06.75-.09.33-.05.48-.51.31-.76-.65-1.01-1.3-2.03-1.94-3.04-.13-1.12-.48-2.17-.15-3.45,1.49-4.13,1.68-8.59,2.89-12.81.45-.44.6,1.16.62,1.35.2,2.37-.25,4.83.73,7.17,1.22,2.92,3.67-.99,4.11-2.54.78-2.74-.16-4.73.14-7.14.08-.69.45-1.03.44-1.86-.01-.73-.31-2.98-.48-3.7-.45-1.94-3.07-.69-3.4-1.18-.23-.34-.03-1.39-.14-1.94-.09-.43-.48-.78-.56-1.31-.29-1.79.62-3.79.81-5.6.51-4.65.42-9.87,0-14.55-.16-1.79-.59-3.79-1.04-5.51,1.9-.2,1.65,2.05,3.11,2.52l-.2.6c.86.16,1.06-.81,1.25-1.45l.82.2c.29-1.93.77-3.97.63-5.93-.05-.78-.9-3.27-.83-3.5.13-.37.73-.29.93-.55.07-.08.23-1.54.47-2.02,1.24-2.57,3.92-4.97,4.72-8.17.26-1.06-.19-1.86.7-2.78-.39-.66-1.41-1.9-1.52-2.61ZM268.86-153.34c-.07-.04-.14-.08-.2-.13.05.02.1.03.15.04.04.03.09.06.14.09-.03,0-.06,0-.09,0Z"/>
    </g>
    <g>
      <path class="st1" d="M178.1-258.22c1.13.73,2.02,1.68,2.67,2.87.65,1.19.98,2.48.98,3.87,0,2.22-.78,4.11-2.34,5.68s-3.45,2.36-5.67,2.36c-1.97,0-3.71-.63-5.2-1.9-1.49-1.27-2.4-2.86-2.72-4.78h3.26c.3,1.01.88,1.84,1.74,2.49.86.66,1.83.98,2.92.98,1.33,0,2.46-.47,3.4-1.42.94-.95,1.41-2.09,1.41-3.42s-.47-2.46-1.41-3.4c-.94-.94-2.07-1.41-3.4-1.41h-2.15v-3.2h2.15c.73,0,1.35-.26,1.87-.79s.79-1.16.79-1.9-.26-1.38-.79-1.9c-.52-.52-1.15-.79-1.87-.79-.64,0-1.21.21-1.71.62-.49.41-.8.92-.92,1.53h-3.26c.14-1.51.78-2.78,1.9-3.81,1.13-1.03,2.46-1.54,3.99-1.54,1.61,0,2.99.57,4.14,1.72,1.15,1.15,1.72,2.54,1.72,4.17,0,1.51-.5,2.83-1.51,3.96Z"/>
      <path class="st1" d="M200.04-262.72h-3.66c-1.07-1.43-2.5-2.15-4.29-2.15-1.47,0-2.73.52-3.78,1.57s-1.57,2.32-1.57,3.81v7.49c0,1.47.52,2.73,1.57,3.78s2.31,1.57,3.78,1.57,2.73-.52,3.78-1.57,1.57-2.31,1.57-3.78-.52-2.76-1.57-3.81-2.31-1.57-3.78-1.57-2.79.55-3.84,1.66v-3.96c1.21-.6,2.49-.91,3.84-.91,2.38,0,4.4.84,6.07,2.51,1.67,1.67,2.51,3.7,2.51,6.07s-.84,4.37-2.51,6.04c-1.67,1.67-3.7,2.51-6.07,2.51s-4.37-.84-6.04-2.51-2.51-3.69-2.51-6.04v-7.49c0-2.38.84-4.4,2.51-6.07s3.69-2.51,6.04-2.51c1.77,0,3.38.49,4.82,1.48,1.44.99,2.48,2.28,3.13,3.87Z"/>
      <path class="st1" d="M206.01-264.46c2.41-2.41,5.31-3.61,8.72-3.61s6.31,1.2,8.7,3.61c2.4,2.41,3.6,5.31,3.6,8.72s-1.2,6.31-3.6,8.7-5.3,3.6-8.7,3.6-6.31-1.2-8.72-3.6-3.61-5.3-3.61-8.7,1.2-6.31,3.61-8.72ZM214.72-246.65c2.5,0,4.64-.89,6.42-2.66s2.67-3.92,2.67-6.44-.89-4.67-2.66-6.45-3.92-2.67-6.44-2.67-4.66.89-6.44,2.67-2.66,3.93-2.66,6.45.89,4.66,2.66,6.44,3.92,2.66,6.44,2.66Z"/>
    </g>
  </g>
</svg>